<svg xmlns="http://www.w3.org/2000/svg" xmlns:xlink="http://www.w3.org/1999/xlink" viewBox="0,0,256,256" width="48px" height="48px" fill-rule="nonzero"><g fill="#dca90f" fill-rule="nonzero" stroke="none" stroke-width="1" stroke-linecap="butt" stroke-linejoin="miter" stroke-miterlimit="10" stroke-dasharray="" stroke-dashoffset="0" font-family="none" font-weight="none" font-size="none" text-anchor="none" style="mix-blend-mode: normal"><g transform="scale(4,4)"><path d="M28,9c-1.105,0 -2,0.895 -2,2v1h-12c-1.104,0 -2,0.896 -2,2c0,1.104 0.896,2 2,2h36c1.104,0 2,-0.896 2,-2c0,-1.104 -0.896,-2 -2,-2h-12v-1c0,-1.105 -0.895,-2 -2,-2zM15,18v28c0,3.309 2.691,6 6,6h22c3.309,0 6,-2.691 6,-6v-28zM22.5,22c0.828,0 1.5,0.671 1.5,1.5v21c0,0.829 -0.672,1.5 -1.5,1.5c-0.828,0 -1.5,-0.671 -1.5,-1.5v-21c0,-0.829 0.672,-1.5 1.5,-1.5zM32,22c1.104,0 2,0.896 2,2v20c0,1.104 -0.896,2 -2,2c-1.104,0 -2,-0.896 -2,-2v-20c0,-1.104 0.896,-2 2,-2zM41.5,22c0.828,0 1.5,0.671 1.5,1.5v21c0,0.829 -0.672,1.5 -1.5,1.5c-0.828,0 -1.5,-0.671 -1.5,-1.5v-21c0,-0.829 0.672,-1.5 1.5,-1.5z"></path></g></g></svg>