<svg xmlns="http://www.w3.org/2000/svg" shape-rendering="geometricPrecision" text-rendering="geometricPrecision" image-rendering="optimizeQuality" fill-rule="evenodd" clip-rule="evenodd" viewBox="0 0 512 511.99"><path d="M6.31 0h118.64c3.48 0 6.31 2.84 6.31 6.31v118.64c0 3.48-2.83 6.31-6.31 6.31H6.31c-3.47 0-6.31-2.83-6.31-6.31V6.31C0 2.84 2.84 0 6.31 0zm380.74 380.73h118.64c3.47 0 6.31 2.83 6.31 6.3v118.65c0 3.47-2.84 6.31-6.31 6.31H387.05c-3.48 0-6.31-2.84-6.31-6.31V387.03c0-3.47 2.83-6.3 6.31-6.3zm0-190.37h118.64c3.47 0 6.31 2.84 6.31 6.31v118.64c0 3.48-2.84 6.31-6.31 6.31H387.05c-3.48 0-6.31-2.83-6.31-6.31V196.67c0-3.47 2.83-6.31 6.31-6.31zm0-190.36h118.64c3.47 0 6.31 2.84 6.31 6.31v118.64c0 3.48-2.84 6.31-6.31 6.31H387.05c-3.48 0-6.31-2.83-6.31-6.31V6.31c0-3.47 2.83-6.31 6.31-6.31zM196.69 380.73h118.65c3.47 0 6.31 2.83 6.31 6.3v118.65c0 3.47-2.84 6.31-6.31 6.31H196.69c-3.47 0-6.31-2.84-6.31-6.31V387.03c0-3.47 2.84-6.3 6.31-6.3zm0-190.37h118.65c3.47 0 6.31 2.84 6.31 6.31v118.64c0 3.48-2.84 6.31-6.31 6.31H196.69c-3.47 0-6.31-2.83-6.31-6.31V196.67c0-3.47 2.84-6.31 6.31-6.31zm0-190.36h118.65c3.47 0 6.31 2.84 6.31 6.31v118.64c0 3.48-2.84 6.31-6.31 6.31H196.69c-3.47 0-6.31-2.83-6.31-6.31V6.31c0-3.47 2.84-6.31 6.31-6.31zM6.31 380.73h118.64c3.48 0 6.31 2.83 6.31 6.3v118.65c0 3.47-2.83 6.31-6.31 6.31H6.31c-3.47 0-6.31-2.84-6.31-6.31V387.03c0-3.47 2.84-6.3 6.31-6.3zm0-190.37h118.64c3.48 0 6.31 2.84 6.31 6.31v118.64c0 3.48-2.83 6.31-6.31 6.31H6.31c-3.47 0-6.31-2.83-6.31-6.31V196.67c0-3.47 2.84-6.31 6.31-6.31z"/></svg>