<svg xmlns="http://www.w3.org/2000/svg" viewBox="0 0 512 512" style="enable-background:new 0 0 512 512" xml:space="preserve"><circle style="fill:#273b7a" cx="256" cy="256" r="256"/><path style="fill:#121149" d="M300.03 508.214c114.312-19.818 202.624-115.44 211.268-233.21L374.31 138.016l-132.963 33.513-71.542-24.709-31.985 7.578 133.648 133.648-88.821 102.786L300.03 508.214z"/><path style="fill:#fff" d="M200.259 398.222h111.483c12.474 0 22.995-9.288 24.543-21.666l28.32-226.576H147.394l28.322 226.576c1.546 12.378 12.069 21.666 24.543 21.666z"/><path style="fill:#d0d1d3" d="M255.426 149.98v248.242h56.315c12.474 0 22.995-9.288 24.543-21.666l28.322-226.576h-109.18z"/><path style="fill:#e09112" d="M361.589 161.185H150.411c-8.33 0-15.084-6.754-15.084-15.084s6.754-15.084 15.084-15.084h211.178c8.33 0 15.084 6.754 15.084 15.084s-6.754 15.084-15.084 15.084z"/><path style="fill:#ff5419" d="M361.589 131.017H255.426v30.168h106.163c8.332 0 15.084-6.754 15.084-15.084 0-8.332-6.754-15.084-15.084-15.084z"/><path style="fill:#d35933" d="M256 364.606a5.171 5.171 0 0 1-5.172-5.172V188.768c0-2.857 2.315-5.172 5.172-5.172s5.172 2.315 5.172 5.172v170.667a5.171 5.171 0 0 1-5.172 5.171z"/><path style="fill:#b54324" d="M256 183.596c-.197 0-.383.036-.574.059V364.55c.191.021.378.059.574.059a5.171 5.171 0 0 0 5.172-5.172V188.769a5.171 5.171 0 0 0-5.172-5.173z"/><path style="fill:#d35933" d="M206 364.606a5.17 5.17 0 0 1-5.142-4.705l-15.515-170.667a5.17 5.17 0 0 1 4.682-5.618c2.789-.283 5.358 1.836 5.618 4.682l15.515 170.667a5.17 5.17 0 0 1-5.158 5.641z"/><path style="fill:#b54324" d="M306 364.606a5.17 5.17 0 0 1-5.156-5.64l15.515-170.667a5.165 5.165 0 0 1 5.618-4.682 5.17 5.17 0 0 1 4.682 5.618l-15.515 170.667a5.174 5.174 0 0 1-5.144 4.704z"/></svg>