<svg xmlns="http://www.w3.org/2000/svg" viewBox="0 0 256 256" width="48" height="48"><path d="M28 9a2 2 0 0 0-2 2v1H14a2 2 0 0 0 0 4h36a2 2 0 0 0 0-4H38v-1a2 2 0 0 0-2-2zm-13 9v28c0 3.309 2.691 6 6 6h22c3.309 0 6-2.691 6-6V18zm7.5 4a1.5 1.5 0 0 1 1.5 1.5v21a1.5 1.5 0 1 1-3 0v-21a1.5 1.5 0 0 1 1.5-1.5zm9.5 0a2 2 0 0 1 2 2v20a2 2 0 0 1-4 0V24a2 2 0 0 1 2-2zm9.5 0a1.5 1.5 0 0 1 1.5 1.5v21a1.5 1.5 0 1 1-3 0v-21a1.5 1.5 0 0 1 1.5-1.5z" transform="scale(4)" fill="#dca90f" font-family="none" font-weight="none" font-size="none" text-anchor="none" style="mix-blend-mode:normal"/></svg>